<svg xmlns="http://www.w3.org/2000/svg" width="221" height="132" viewBox="0 0 221 132" fill="none"><path d="M84.8613 44.3673C84.8613 44.3673 106.841 56.3704 125.51 37.1025C125.51 37.1025 112.74 56.2894 88.4163 50.2475L84.8613 44.3673Z" fill="#1DBFCC"></path><path d="M130.76 12.4397C131.712 14.1659 131.966 16.6879 132.215 18.5985C132.86 23.4987 132.424 28.5381 130.822 33.2135C127.824 41.9393 121.003 49.0332 112.612 52.5757C109.666 53.821 106.561 54.6661 103.397 55.1292C100.558 55.5473 97.6976 55.6102 94.8367 55.6102C94.7121 55.6102 94.6054 55.5832 94.6054 55.5832C94.5609 55.5697 94.5431 55.5608 94.5431 55.5653C94.5253 55.5922 96.9101 57.0038 96.9101 57.0038C99.5218 58.5503 100.821 59.328 100.843 59.337C101.083 59.4809 101.328 59.6247 101.568 59.7686C101.786 59.8989 102.516 59.7191 102.752 59.7011C103.846 59.6067 104.932 59.4449 106.009 59.2381C109.626 58.5413 113.145 57.3095 116.407 55.5832C125.915 50.5617 133.336 41.0986 134.239 30.0936C134.72 24.2404 133.621 17.623 130.76 12.4307V12.4397Z" fill="#1DBFCC"></path><path d="M121.875 0.0456184C121.959 -0.165671 123.872 0.414252 124.549 0.61655C134.066 3.4847 140.072 12.7545 141.976 22.2041C144.214 33.3125 140.415 44.6457 132.152 52.2657C126.666 57.3276 119.303 61.2477 111.868 62.1154C110.565 62.2682 109.252 62.3222 107.939 62.2772C109.087 62.2772 111.014 61.459 112.082 61.0185C113.279 60.5285 114.475 59.944 115.677 59.427C118.373 58.2627 121.029 56.986 123.512 55.408C127.12 53.1108 136.637 44.6053 137.954 30.9748C139.093 19.1471 133.483 10.1695 131.169 7.46324C129.185 5.14355 127.249 3.62406 127.249 3.62406C124.411 1.39877 121.763 0.328837 121.875 0.050114V0.0456184Z" fill="#1DBFCC"></path><path d="M112.541 22.4828H109.921V19.835H106.891V22.4828H104.266V25.5443H106.891V28.1921H109.921V25.5443H112.541V22.4828Z" fill="#1DBFCC"></path><path d="M121.39 25.8503L119.997 14.1529L96.843 17.03C96.843 17.03 104.055 25.1265 101.025 44.255C101.025 44.255 100.843 25.603 93.3281 15.3757L121.937 11.8242L121.39 25.8458V25.8503Z" fill="white"></path><path d="M106.889 10.1112L104.66 5.21104L82.1159 8.02974C82.1159 8.02974 97.9553 23.7866 95.2857 39.3006C95.2857 39.3006 93.4259 20.4374 76.8613 6.15061L105.871 2.96777L106.885 10.1112H106.889Z" fill="white"></path><path d="M64.8705 86.4953C65.7559 87.6192 66.1964 88.8869 66.1964 90.3075C66.1964 91.5213 65.885 92.6137 65.2621 93.5847C64.6392 94.5603 63.736 95.3245 62.5614 95.8864C61.3823 96.4484 60.0119 96.7271 58.4502 96.7271H49V72.8604H58.0053C59.616 72.8604 60.9952 73.1346 62.152 73.683C63.3088 74.2315 64.1809 74.9688 64.7682 75.8993C65.3555 76.8254 65.6536 77.8639 65.6536 79.0057C65.6536 80.3814 65.2888 81.5232 64.568 82.4403C63.8428 83.3574 62.8684 84.0317 61.6448 84.4678C62.9129 84.6971 63.9896 85.3714 64.875 86.4953H64.8705ZM52.8753 82.8899H57.6672C58.9352 82.8899 59.9274 82.5977 60.6393 82.0132C61.3512 81.4288 61.7116 80.5882 61.7116 79.4913C61.7116 78.3943 61.3556 77.5762 60.6393 76.9693C59.9274 76.3624 58.9352 76.0612 57.6672 76.0612H52.8753V82.8944V82.8899ZM61.1999 92.5732C61.9474 91.9349 62.3211 91.0403 62.3211 89.8939C62.3211 88.7475 61.9251 87.799 61.1332 87.1112C60.3412 86.4234 59.2867 86.0817 57.9742 86.0817H52.8753V93.5353H58.1076C59.4202 93.5353 60.4524 93.2161 61.1999 92.5732Z" fill="white"></path><path d="M74.2855 72.8604V96.7271H70.4102V72.8604H74.2855Z" fill="white"></path><path d="M83.2601 93.5667H91.2465V96.7271H79.3848V72.8604H83.2601V93.5667Z" fill="white"></path><path d="M111.774 96.7269H110.243L96.2415 75.1618V96.7269H94.7109V72.6533H96.2415L110.243 94.1509V72.6533H111.774V96.7269Z" fill="white"></path><path d="M122.069 95.4411C120.303 94.3982 118.919 92.9416 117.923 91.0625C116.926 89.1834 116.428 87.066 116.428 84.7103C116.428 82.3546 116.926 80.2058 117.923 78.3401C118.919 76.4745 120.303 75.0224 122.069 73.9795C123.836 72.9365 125.82 72.415 128.018 72.415C130.216 72.415 132.2 72.9365 133.967 73.9795C135.733 75.0224 137.117 76.4745 138.113 78.3401C139.11 80.2058 139.608 82.3277 139.608 84.7103C139.608 87.0929 139.11 89.1879 138.113 91.0625C137.117 92.9416 135.733 94.3982 133.967 95.4411C132.2 96.4841 130.216 97.0056 128.018 97.0056C125.82 97.0056 123.836 96.4841 122.069 95.4411ZM133.117 94.2903C134.634 93.3957 135.831 92.1279 136.703 90.4781C137.575 88.8282 138.011 86.9086 138.011 84.7103C138.011 82.512 137.575 80.5564 136.703 78.9066C135.831 77.2567 134.634 75.989 133.117 75.0944C131.6 74.1998 129.9 73.7547 128.018 73.7547C126.136 73.7547 124.436 74.1998 122.919 75.0944C121.402 75.989 120.201 77.2567 119.315 78.9066C118.43 80.5564 117.989 82.4895 117.989 84.7103C117.989 86.9311 118.43 88.8327 119.315 90.4781C120.201 92.1279 121.398 93.3957 122.919 94.2903C124.436 95.1849 126.136 95.6299 128.018 95.6299C129.9 95.6299 131.6 95.1849 133.117 94.2903Z" fill="white"></path><path d="M171.999 72.6221L165.405 96.7271H163.741L157.214 75.0227L150.585 96.7271H148.988L142.496 72.6221H144.129L149.837 94.5647L156.396 72.6221H158.095L164.587 94.7041L170.331 72.6221H171.995H171.999Z" fill="white"></path><path d="M8.74432 118.183C8.66761 117.535 8.35653 117.032 7.81108 116.674C7.26563 116.316 6.59659 116.137 5.80398 116.137C5.22443 116.137 4.71733 116.231 4.28267 116.419C3.85227 116.606 3.51563 116.864 3.27273 117.192C3.03409 117.52 2.91477 117.893 2.91477 118.311C2.91477 118.66 2.99787 118.96 3.16406 119.212C3.33452 119.459 3.55185 119.666 3.81605 119.832C4.08026 119.994 4.35724 120.128 4.64702 120.235C4.93679 120.337 5.20312 120.42 5.44602 120.484L6.77557 120.842C7.11648 120.931 7.49574 121.055 7.91335 121.213C8.33523 121.37 8.73793 121.585 9.12145 121.858C9.50923 122.127 9.82884 122.472 10.0803 122.894C10.3317 123.316 10.4574 123.833 10.4574 124.447C10.4574 125.154 10.272 125.794 9.90128 126.365C9.5348 126.936 8.99787 127.389 8.29048 127.726C7.58736 128.063 6.73295 128.231 5.72727 128.231C4.78977 128.231 3.97798 128.08 3.2919 127.777C2.61009 127.475 2.07315 127.053 1.68111 126.512C1.29332 125.97 1.07386 125.342 1.02273 124.626H2.65909C2.7017 125.12 2.8679 125.529 3.15767 125.853C3.4517 126.173 3.82244 126.411 4.26989 126.569C4.72159 126.723 5.20739 126.799 5.72727 126.799C6.33239 126.799 6.87571 126.701 7.35724 126.505C7.83878 126.305 8.22017 126.028 8.50142 125.674C8.78267 125.316 8.9233 124.899 8.9233 124.421C8.9233 123.987 8.80185 123.633 8.55895 123.36C8.31605 123.088 7.99645 122.866 7.60014 122.696C7.20384 122.525 6.77557 122.376 6.31534 122.248L4.70455 121.788C3.68182 121.494 2.87216 121.074 2.27557 120.529C1.67898 119.983 1.38068 119.269 1.38068 118.387C1.38068 117.654 1.57884 117.015 1.97514 116.47C2.37571 115.92 2.91264 115.494 3.58594 115.191C4.26349 114.884 5.01989 114.731 5.85511 114.731C6.69886 114.731 7.44886 114.882 8.10511 115.185C8.76136 115.483 9.28125 115.892 9.66477 116.412C10.0526 116.932 10.2571 117.522 10.2784 118.183H8.74432ZM12.8592 128.001V118.183H14.3677V128.001H12.8592ZM13.6262 116.546C13.3322 116.546 13.0787 116.446 12.8656 116.246C12.6568 116.046 12.5524 115.805 12.5524 115.524C12.5524 115.242 12.6568 115.002 12.8656 114.801C13.0787 114.601 13.3322 114.501 13.6262 114.501C13.9203 114.501 14.1717 114.601 14.3805 114.801C14.5936 115.002 14.7001 115.242 14.7001 115.524C14.7001 115.805 14.5936 116.046 14.3805 116.246C14.1717 116.446 13.9203 116.546 13.6262 116.546ZM17.1307 128.001V118.183H18.5881V119.717H18.7159C18.9205 119.193 19.2507 118.786 19.7067 118.496C20.1626 118.202 20.7102 118.055 21.3494 118.055C21.9972 118.055 22.5362 118.202 22.9666 118.496C23.4013 118.786 23.7401 119.193 23.983 119.717H24.0852C24.3366 119.21 24.7138 118.807 25.2166 118.509C25.7195 118.206 26.3224 118.055 27.0256 118.055C27.9034 118.055 28.6214 118.33 29.1797 118.88C29.7379 119.425 30.017 120.275 30.017 121.43V128.001H28.5085V121.43C28.5085 120.706 28.3104 120.188 27.9141 119.877C27.5178 119.566 27.0511 119.41 26.5142 119.41C25.8239 119.41 25.2891 119.619 24.9098 120.036C24.5305 120.45 24.3409 120.974 24.3409 121.609V128.001H22.8068V121.277C22.8068 120.718 22.6257 120.269 22.2635 119.928C21.9013 119.583 21.4347 119.41 20.8636 119.41C20.4716 119.41 20.1051 119.514 19.7642 119.723C19.4276 119.932 19.1548 120.222 18.946 120.593C18.7415 120.959 18.6392 121.383 18.6392 121.865V128.001H17.1307ZM32.7752 131.683V118.183H34.2326V119.742H34.4116C34.5224 119.572 34.6758 119.355 34.8718 119.09C35.0721 118.822 35.3576 118.583 35.7283 118.375C36.1033 118.161 36.6104 118.055 37.2496 118.055C38.0763 118.055 38.805 118.262 39.4357 118.675C40.0664 119.088 40.5586 119.674 40.9123 120.433C41.266 121.191 41.4428 122.086 41.4428 123.117C41.4428 124.157 41.266 125.059 40.9123 125.821C40.5586 126.58 40.0685 127.168 39.4421 127.585C38.8157 127.999 38.0934 128.206 37.2752 128.206C36.6445 128.206 36.1396 128.101 35.7603 127.892C35.381 127.679 35.0891 127.438 34.8846 127.17C34.68 126.897 34.5224 126.671 34.4116 126.492H34.2837V131.683H32.7752ZM34.2582 123.092C34.2582 123.833 34.3668 124.487 34.5842 125.054C34.8015 125.617 35.119 126.058 35.5366 126.377C35.9542 126.693 36.4656 126.85 37.0707 126.85C37.7013 126.85 38.2276 126.684 38.6495 126.352C39.0756 126.015 39.3952 125.563 39.6083 124.997C39.8256 124.426 39.9343 123.791 39.9343 123.092C39.9343 122.402 39.8278 121.779 39.6147 121.225C39.4059 120.667 39.0884 120.226 38.6623 119.902C38.2404 119.574 37.7099 119.41 37.0707 119.41C36.457 119.41 35.9414 119.566 35.5238 119.877C35.1062 120.184 34.7908 120.614 34.5778 121.168C34.3647 121.718 34.2582 122.359 34.2582 123.092ZM45.2525 114.91V128.001H43.744V114.91H45.2525ZM48.0154 128.001V118.183H49.524V128.001H48.0154ZM48.7825 116.546C48.4885 116.546 48.2349 116.446 48.0218 116.246C47.813 116.046 47.7086 115.805 47.7086 115.524C47.7086 115.242 47.813 115.002 48.0218 114.801C48.2349 114.601 48.4885 114.501 48.7825 114.501C49.0765 114.501 49.3279 114.601 49.5368 114.801C49.7498 115.002 49.8564 115.242 49.8564 115.524C49.8564 115.805 49.7498 116.046 49.5368 116.246C49.3279 116.446 49.0765 116.546 48.7825 116.546ZM56.6591 118.183V119.461H51.3665V118.183H56.6591ZM52.9517 128.001V116.828C52.9517 116.265 53.0838 115.796 53.348 115.421C53.6122 115.046 53.9553 114.765 54.3771 114.578C54.799 114.39 55.2443 114.296 55.7131 114.296C56.0838 114.296 56.3864 114.326 56.6207 114.386C56.8551 114.446 57.0298 114.501 57.1449 114.552L56.7102 115.856C56.6335 115.831 56.527 115.799 56.3906 115.76C56.2585 115.722 56.0838 115.703 55.8665 115.703C55.3679 115.703 55.0078 115.828 54.7862 116.08C54.5689 116.331 54.4602 116.7 54.4602 117.186V128.001H52.9517ZM59.7449 131.683C59.4892 131.683 59.2612 131.661 59.0609 131.619C58.8606 131.581 58.7221 131.542 58.6454 131.504L59.0289 130.174C59.3954 130.268 59.7193 130.302 60.0005 130.277C60.2818 130.251 60.5311 130.125 60.7484 129.899C60.97 129.678 61.1724 129.318 61.3556 128.819L61.6369 128.052L58.0062 118.183H59.6426L62.3528 126.007H62.4551L65.1653 118.183H66.8017L62.6341 129.433C62.4466 129.94 62.2143 130.36 61.9373 130.692C61.6603 131.029 61.3386 131.278 60.9721 131.44C60.6099 131.602 60.2008 131.683 59.7449 131.683ZM68.7928 128.001V118.183H70.3013V128.001H68.7928ZM69.5598 116.546C69.2658 116.546 69.0123 116.446 68.7992 116.246C68.5904 116.046 68.486 115.805 68.486 115.524C68.486 115.242 68.5904 115.002 68.7992 114.801C69.0123 114.601 69.2658 114.501 69.5598 114.501C69.8539 114.501 70.1053 114.601 70.3141 114.801C70.5272 115.002 70.6337 115.242 70.6337 115.524C70.6337 115.805 70.5272 116.046 70.3141 116.246C70.1053 116.446 69.8539 116.546 69.5598 116.546ZM74.5728 122.095V128.001H73.0643V118.183H74.5217V119.717H74.6495C74.8796 119.218 75.229 118.818 75.6978 118.515C76.1665 118.208 76.7717 118.055 77.5131 118.055C78.1779 118.055 78.7596 118.191 79.2582 118.464C79.7567 118.733 80.1445 119.142 80.4215 119.691C80.6985 120.237 80.837 120.927 80.837 121.762V128.001H79.3285V121.865C79.3285 121.093 79.1282 120.492 78.7276 120.062C78.3271 119.627 77.7773 119.41 77.0785 119.41C76.5969 119.41 76.1665 119.514 75.7873 119.723C75.4123 119.932 75.1161 120.237 74.8988 120.637C74.6815 121.038 74.5728 121.524 74.5728 122.095ZM87.5566 131.887C86.8279 131.887 86.2015 131.794 85.6774 131.606C85.1532 131.423 84.7164 131.18 84.367 130.877C84.0218 130.579 83.747 130.259 83.5424 129.919L84.7441 129.075C84.8805 129.254 85.0531 129.458 85.2619 129.688C85.4707 129.923 85.7562 130.125 86.1184 130.296C86.4849 130.47 86.9643 130.558 87.5566 130.558C88.3493 130.558 89.0034 130.366 89.519 129.983C90.0346 129.599 90.2924 128.998 90.2924 128.18V126.186H90.1646C90.0538 126.365 89.8961 126.586 89.6916 126.85C89.4913 127.11 89.2015 127.343 88.8223 127.547C88.4473 127.747 87.9402 127.848 87.301 127.848C86.5083 127.848 85.7967 127.66 85.166 127.285C84.5396 126.91 84.0431 126.365 83.6767 125.649C83.3145 124.933 83.1333 124.063 83.1333 123.041C83.1333 122.035 83.3102 121.159 83.6639 120.414C84.0176 119.664 84.5098 119.084 85.1404 118.675C85.7711 118.262 86.4998 118.055 87.3265 118.055C87.9657 118.055 88.4728 118.161 88.8478 118.375C89.2271 118.583 89.5169 118.822 89.7172 119.09C89.9217 119.355 90.0794 119.572 90.1902 119.742H90.3436V118.183H91.801V128.282C91.801 129.126 91.6092 129.812 91.2257 130.34C90.8464 130.873 90.335 131.263 89.6916 131.51C89.0524 131.762 88.3407 131.887 87.5566 131.887ZM87.5055 126.492C88.1106 126.492 88.622 126.354 89.0396 126.077C89.4572 125.8 89.7747 125.402 89.992 124.882C90.2093 124.362 90.318 123.74 90.318 123.015C90.318 122.308 90.2115 121.684 89.9984 121.142C89.7853 120.601 89.47 120.177 89.0524 119.87C88.6348 119.563 88.1191 119.41 87.5055 119.41C86.8663 119.41 86.3336 119.572 85.9075 119.896C85.4856 120.22 85.1681 120.654 84.9551 121.2C84.7463 121.745 84.6419 122.35 84.6419 123.015C84.6419 123.697 84.7484 124.3 84.9615 124.824C85.1788 125.344 85.4984 125.753 85.9203 126.051C86.3464 126.345 86.8748 126.492 87.5055 126.492ZM99.8294 114.91H101.721L106.17 125.777H106.324L110.773 114.91H112.665V128.001H111.182V118.055H111.054L106.963 128.001H105.531L101.44 118.055H101.312V128.001H99.8294V114.91ZM119.755 128.206C118.809 128.206 117.993 127.997 117.307 127.579C116.625 127.157 116.099 126.569 115.728 125.815C115.362 125.056 115.178 124.174 115.178 123.169C115.178 122.163 115.362 121.277 115.728 120.509C116.099 119.738 116.614 119.137 117.275 118.707C117.94 118.272 118.715 118.055 119.602 118.055C120.113 118.055 120.618 118.14 121.116 118.311C121.615 118.481 122.069 118.758 122.478 119.142C122.887 119.521 123.213 120.024 123.456 120.65C123.699 121.277 123.82 122.048 123.82 122.964V123.603H116.252V122.299H122.286C122.286 121.745 122.175 121.251 121.954 120.816C121.737 120.382 121.425 120.039 121.021 119.787C120.62 119.536 120.147 119.41 119.602 119.41C119.001 119.41 118.481 119.559 118.042 119.858C117.607 120.152 117.273 120.535 117.038 121.008C116.804 121.481 116.687 121.988 116.687 122.529V123.399C116.687 124.14 116.815 124.769 117.07 125.284C117.33 125.796 117.69 126.186 118.151 126.454C118.611 126.718 119.146 126.85 119.755 126.85C120.151 126.85 120.509 126.795 120.829 126.684C121.153 126.569 121.432 126.399 121.666 126.173C121.901 125.943 122.082 125.657 122.21 125.316L123.667 125.725C123.513 126.22 123.256 126.654 122.893 127.029C122.531 127.4 122.084 127.69 121.551 127.899C121.018 128.103 120.42 128.206 119.755 128.206ZM129.822 128.206C129.004 128.206 128.282 127.999 127.656 127.585C127.029 127.168 126.539 126.58 126.185 125.821C125.832 125.059 125.655 124.157 125.655 123.117C125.655 122.086 125.832 121.191 126.185 120.433C126.539 119.674 127.031 119.088 127.662 118.675C128.293 118.262 129.021 118.055 129.848 118.055C130.487 118.055 130.992 118.161 131.363 118.375C131.738 118.583 132.023 118.822 132.219 119.09C132.42 119.355 132.575 119.572 132.686 119.742H132.814V114.91H134.322V128.001H132.865V126.492H132.686C132.575 126.671 132.418 126.897 132.213 127.17C132.009 127.438 131.717 127.679 131.337 127.892C130.958 128.101 130.453 128.206 129.822 128.206ZM130.027 126.85C130.632 126.85 131.143 126.693 131.561 126.377C131.979 126.058 132.296 125.617 132.513 125.054C132.731 124.487 132.839 123.833 132.839 123.092C132.839 122.359 132.733 121.718 132.52 121.168C132.307 120.614 131.991 120.184 131.574 119.877C131.156 119.566 130.641 119.41 130.027 119.41C129.388 119.41 128.855 119.574 128.429 119.902C128.007 120.226 127.69 120.667 127.477 121.225C127.268 121.779 127.163 122.402 127.163 123.092C127.163 123.791 127.27 124.426 127.483 124.997C127.7 125.563 128.02 126.015 128.442 126.352C128.868 126.684 129.396 126.85 130.027 126.85ZM137.295 128.001V118.183H138.803V128.001H137.295ZM138.062 116.546C137.768 116.546 137.514 116.446 137.301 116.246C137.092 116.046 136.988 115.805 136.988 115.524C136.988 115.242 137.092 115.002 137.301 114.801C137.514 114.601 137.768 114.501 138.062 114.501C138.356 114.501 138.607 114.601 138.816 114.801C139.029 115.002 139.136 115.242 139.136 115.524C139.136 115.805 139.029 116.046 138.816 116.246C138.607 116.446 138.356 116.546 138.062 116.546ZM145.555 128.206C144.634 128.206 143.842 127.988 143.177 127.554C142.512 127.119 142.001 126.52 141.643 125.757C141.285 124.995 141.106 124.123 141.106 123.143C141.106 122.146 141.289 121.266 141.656 120.503C142.026 119.736 142.542 119.137 143.203 118.707C143.867 118.272 144.643 118.055 145.529 118.055C146.22 118.055 146.842 118.183 147.396 118.438C147.95 118.694 148.404 119.052 148.757 119.512C149.111 119.973 149.33 120.509 149.416 121.123H147.907C147.792 120.676 147.536 120.279 147.14 119.934C146.748 119.585 146.22 119.41 145.555 119.41C144.967 119.41 144.451 119.563 144.008 119.87C143.569 120.173 143.226 120.601 142.979 121.155C142.736 121.705 142.615 122.35 142.615 123.092C142.615 123.85 142.734 124.511 142.972 125.073C143.215 125.636 143.556 126.073 143.995 126.384C144.438 126.695 144.958 126.85 145.555 126.85C145.947 126.85 146.303 126.782 146.622 126.646C146.942 126.509 147.213 126.313 147.434 126.058C147.656 125.802 147.813 125.495 147.907 125.137H149.416C149.33 125.717 149.119 126.239 148.783 126.703C148.45 127.164 148.009 127.53 147.46 127.803C146.914 128.071 146.279 128.206 145.555 128.206ZM154.51 128.231C153.888 128.231 153.323 128.114 152.816 127.88C152.309 127.641 151.906 127.298 151.608 126.85C151.31 126.399 151.161 125.853 151.161 125.214C151.161 124.652 151.271 124.196 151.493 123.846C151.715 123.492 152.011 123.215 152.382 123.015C152.752 122.815 153.161 122.666 153.609 122.568C154.061 122.465 154.514 122.384 154.97 122.325C155.567 122.248 156.051 122.191 156.421 122.152C156.796 122.11 157.069 122.039 157.24 121.941C157.414 121.843 157.502 121.673 157.502 121.43V121.379C157.502 120.748 157.329 120.258 156.984 119.909C156.643 119.559 156.125 119.384 155.431 119.384C154.71 119.384 154.146 119.542 153.737 119.858C153.328 120.173 153.04 120.509 152.874 120.867L151.442 120.356C151.698 119.759 152.039 119.295 152.465 118.963C152.895 118.626 153.364 118.392 153.871 118.259C154.382 118.123 154.885 118.055 155.379 118.055C155.695 118.055 156.057 118.093 156.466 118.17C156.879 118.242 157.278 118.394 157.661 118.624C158.049 118.854 158.371 119.201 158.627 119.666C158.882 120.13 159.01 120.752 159.01 121.532V128.001H157.502V126.671H157.425C157.323 126.884 157.152 127.112 156.914 127.355C156.675 127.598 156.357 127.805 155.961 127.975C155.565 128.146 155.081 128.231 154.51 128.231ZM154.74 126.876C155.337 126.876 155.84 126.759 156.249 126.524C156.662 126.29 156.973 125.987 157.182 125.617C157.395 125.246 157.502 124.856 157.502 124.447V123.066C157.438 123.143 157.297 123.213 157.08 123.277C156.867 123.337 156.619 123.39 156.338 123.437C156.061 123.48 155.791 123.518 155.526 123.552C155.267 123.582 155.056 123.608 154.894 123.629C154.502 123.68 154.135 123.763 153.794 123.878C153.458 123.989 153.185 124.157 152.976 124.383C152.771 124.605 152.669 124.907 152.669 125.291C152.669 125.815 152.863 126.211 153.251 126.48C153.643 126.744 154.139 126.876 154.74 126.876ZM163.272 114.91V128.001H161.763V114.91H163.272ZM171.302 128.001V114.91H175.879C176.791 114.91 177.543 115.068 178.135 115.383C178.727 115.694 179.169 116.114 179.458 116.642C179.748 117.166 179.893 117.748 179.893 118.387C179.893 118.95 179.793 119.414 179.593 119.781C179.396 120.147 179.137 120.437 178.813 120.65C178.493 120.863 178.146 121.021 177.771 121.123V121.251C178.171 121.277 178.574 121.417 178.979 121.673C179.384 121.929 179.722 122.295 179.995 122.772C180.268 123.25 180.404 123.833 180.404 124.524C180.404 125.18 180.255 125.77 179.957 126.294C179.659 126.818 179.188 127.234 178.544 127.541C177.901 127.848 177.063 128.001 176.032 128.001H171.302ZM172.887 126.595H176.032C177.068 126.595 177.803 126.394 178.237 125.994C178.676 125.589 178.896 125.099 178.896 124.524C178.896 124.081 178.783 123.671 178.557 123.296C178.331 122.917 178.009 122.615 177.592 122.389C177.174 122.159 176.68 122.044 176.109 122.044H172.887V126.595ZM172.887 120.663H175.828C176.305 120.663 176.735 120.569 177.119 120.382C177.507 120.194 177.813 119.93 178.039 119.589C178.269 119.248 178.384 118.848 178.384 118.387C178.384 117.812 178.184 117.324 177.784 116.924C177.383 116.519 176.748 116.316 175.879 116.316H172.887V120.663ZM182.805 128.001V118.183H184.313V128.001H182.805ZM183.572 116.546C183.278 116.546 183.024 116.446 182.811 116.246C182.602 116.046 182.498 115.805 182.498 115.524C182.498 115.242 182.602 115.002 182.811 114.801C183.024 114.601 183.278 114.501 183.572 114.501C183.866 114.501 184.117 114.601 184.326 114.801C184.539 115.002 184.645 115.242 184.645 115.524C184.645 115.805 184.539 116.046 184.326 116.246C184.117 116.446 183.866 116.546 183.572 116.546ZM188.585 114.91V128.001H187.076V114.91H188.585ZM192.856 114.91V128.001H191.347V114.91H192.856ZM195.619 128.001V118.183H197.127V128.001H195.619ZM196.386 116.546C196.092 116.546 195.838 116.446 195.625 116.246C195.417 116.046 195.312 115.805 195.312 115.524C195.312 115.242 195.417 115.002 195.625 114.801C195.838 114.601 196.092 114.501 196.386 114.501C196.68 114.501 196.931 114.601 197.14 114.801C197.353 115.002 197.46 115.242 197.46 115.524C197.46 115.805 197.353 116.046 197.14 116.246C196.931 116.446 196.68 116.546 196.386 116.546ZM201.399 122.095V128.001H199.89V118.183H201.348V119.717H201.476C201.706 119.218 202.055 118.818 202.524 118.515C202.993 118.208 203.598 118.055 204.339 118.055C205.004 118.055 205.586 118.191 206.084 118.464C206.583 118.733 206.971 119.142 207.248 119.691C207.525 120.237 207.663 120.927 207.663 121.762V128.001H206.155V121.865C206.155 121.093 205.954 120.492 205.554 120.062C205.153 119.627 204.604 119.41 203.905 119.41C203.423 119.41 202.993 119.514 202.613 119.723C202.238 119.932 201.942 120.237 201.725 120.637C201.508 121.038 201.399 121.524 201.399 122.095ZM214.383 131.887C213.654 131.887 213.028 131.794 212.504 131.606C211.979 131.423 211.543 131.18 211.193 130.877C210.848 130.579 210.573 130.259 210.369 129.919L211.57 129.075C211.707 129.254 211.879 129.458 212.088 129.688C212.297 129.923 212.582 130.125 212.945 130.296C213.311 130.47 213.79 130.558 214.383 130.558C215.175 130.558 215.83 130.366 216.345 129.983C216.861 129.599 217.119 128.998 217.119 128.18V126.186H216.991C216.88 126.365 216.722 126.586 216.518 126.85C216.317 127.11 216.028 127.343 215.648 127.547C215.273 127.747 214.766 127.848 214.127 127.848C213.335 127.848 212.623 127.66 211.992 127.285C211.366 126.91 210.869 126.365 210.503 125.649C210.141 124.933 209.96 124.063 209.96 123.041C209.96 122.035 210.136 121.159 210.49 120.414C210.844 119.664 211.336 119.084 211.967 118.675C212.597 118.262 213.326 118.055 214.153 118.055C214.792 118.055 215.299 118.161 215.674 118.375C216.053 118.583 216.343 118.822 216.543 119.09C216.748 119.355 216.906 119.572 217.016 119.742H217.17V118.183H218.627V128.282C218.627 129.126 218.435 129.812 218.052 130.34C217.673 130.873 217.161 131.263 216.518 131.51C215.879 131.762 215.167 131.887 214.383 131.887ZM214.332 126.492C214.937 126.492 215.448 126.354 215.866 126.077C216.283 125.8 216.601 125.402 216.818 124.882C217.036 124.362 217.144 123.74 217.144 123.015C217.144 122.308 217.038 121.684 216.825 121.142C216.612 120.601 216.296 120.177 215.879 119.87C215.461 119.563 214.945 119.41 214.332 119.41C213.692 119.41 213.16 119.572 212.734 119.896C212.312 120.22 211.994 120.654 211.781 121.2C211.572 121.745 211.468 122.35 211.468 123.015C211.468 123.697 211.575 124.3 211.788 124.824C212.005 125.344 212.325 125.753 212.746 126.051C213.173 126.345 213.701 126.492 214.332 126.492Z" fill="white"></path></svg>